<mxfile host="Electron" modified="2024-06-28T11:10:21.029Z" agent="Mozilla/5.0 (X11; Linux x86_64) AppleWebKit/537.36 (KHTML, like Gecko) draw.io/24.6.1 Chrome/124.0.6367.207 Electron/30.0.6 Safari/537.36" etag="zXq-iYC_zbQNpVxAr6xz" version="24.6.1" type="device">
  <diagram name="Page-1" id="5348f1db-0dfa-24cf-5d06-2057accb5106">
    <mxGraphModel dx="2868" dy="1910" grid="1" gridSize="10" guides="1" tooltips="1" connect="1" arrows="1" fold="1" page="1" pageScale="1.5" pageWidth="826" pageHeight="1169" background="none" math="0" shadow="0">
      <root>
        <mxCell id="0" style=";html=1;" />
        <mxCell id="1" style=";html=1;" parent="0" />
        <mxCell id="55dd390204d0f602-3" value="" style="whiteSpace=wrap;html=1;rounded=0;shadow=0;dashed=0;strokeColor=default;strokeWidth=4;fillColor=#FFFFFF;gradientColor=none;fontFamily=Helvetica;fontSize=100;fontColor=#FFFFFF;align=center;sketch=1;curveFitting=1;jiggle=2;" parent="1" vertex="1">
          <mxGeometry x="200" y="280" width="880" height="1280" as="geometry" />
        </mxCell>
        <mxCell id="55dd390204d0f602-1" value="&lt;font color=&quot;#000000&quot; face=&quot;Georgia&quot;&gt;&lt;b&gt;Streamlit &amp;amp; Docker&lt;/b&gt;&lt;/font&gt;" style="whiteSpace=wrap;html=1;rounded=0;shadow=0;dashed=0;strokeColor=default;strokeWidth=4;fillColor=#F0922D;gradientColor=none;fontFamily=Helvetica;fontSize=100;fontColor=#FFFFFF;align=center;" parent="1" vertex="1">
          <mxGeometry x="200" y="80" width="880" height="200" as="geometry" />
        </mxCell>
        <mxCell id="j8zLXz6uU7UaEbINKe2m-9" style="edgeStyle=orthogonalEdgeStyle;rounded=0;orthogonalLoop=1;jettySize=auto;html=1;exitX=0.5;exitY=1;exitDx=0;exitDy=0;entryX=0.5;entryY=0;entryDx=0;entryDy=0;flowAnimation=1;shadow=0;strokeWidth=5;strokeColor=#F0922D;" edge="1" parent="1" source="55dd390204d0f602-2" target="55dd390204d0f602-9">
          <mxGeometry relative="1" as="geometry">
            <Array as="points">
              <mxPoint x="360" y="590" />
              <mxPoint x="910" y="590" />
            </Array>
          </mxGeometry>
        </mxCell>
        <mxCell id="55dd390204d0f602-2" value="" style="ellipse;whiteSpace=wrap;html=1;rounded=0;shadow=0;dashed=0;strokeColor=#000000;strokeWidth=4;fillColor=none;gradientColor=none;fontFamily=Helvetica;fontSize=100;fontColor=#FFFFFF;align=center;" parent="1" vertex="1">
          <mxGeometry x="260" y="330" width="200" height="200" as="geometry" />
        </mxCell>
        <mxCell id="55dd390204d0f602-4" value="" style="ellipse;whiteSpace=wrap;html=1;rounded=0;shadow=0;dashed=0;strokeColor=none;strokeWidth=4;fillColor=#F49731;gradientColor=none;fontFamily=Helvetica;fontSize=100;fontColor=#FFFFFF;align=center;" parent="1" vertex="1">
          <mxGeometry x="275" y="345" width="170" height="170" as="geometry" />
        </mxCell>
        <mxCell id="55dd390204d0f602-6" value="STAGE 1" style="whiteSpace=wrap;html=1;rounded=1;shadow=0;dashed=0;strokeColor=default;strokeWidth=4;fillColor=#F0922D;gradientColor=none;fontFamily=Helvetica;fontSize=30;fontColor=#000000;align=center;fontStyle=1;glass=0;labelBackgroundColor=none;labelBorderColor=none;textShadow=0;" parent="1" vertex="1">
          <mxGeometry x="660" y="320" width="240" height="60" as="geometry" />
        </mxCell>
        <mxCell id="55dd390204d0f602-8" value="Data Extraction and Preprocesing" style="text;spacingTop=-5;fillColor=#ffcc99;whiteSpace=wrap;html=1;align=center;fontSize=20;fontFamily=Helvetica;fillColor=none;strokeColor=#36393d;rounded=1;shadow=0;dashed=0;fontStyle=1;verticalAlign=middle;labelBackgroundColor=none;labelBorderColor=none;textShadow=0;sketch=1;curveFitting=1;jiggle=2;strokeWidth=3;" parent="1" vertex="1">
          <mxGeometry x="510" y="400" width="535" height="100" as="geometry" />
        </mxCell>
        <mxCell id="j8zLXz6uU7UaEbINKe2m-13" style="edgeStyle=orthogonalEdgeStyle;rounded=0;orthogonalLoop=1;jettySize=auto;html=1;exitX=0.5;exitY=1;exitDx=0;exitDy=0;entryX=0.5;entryY=0;entryDx=0;entryDy=0;flowAnimation=1;strokeWidth=5;strokeColor=#F0922D;" edge="1" parent="1" source="55dd390204d0f602-9" target="55dd390204d0f602-14">
          <mxGeometry relative="1" as="geometry" />
        </mxCell>
        <mxCell id="55dd390204d0f602-9" value="" style="ellipse;whiteSpace=wrap;html=1;rounded=0;shadow=0;dashed=0;strokeColor=#000000;strokeWidth=4;fillColor=none;gradientColor=none;fontFamily=Helvetica;fontSize=100;fontColor=#FFFFFF;align=center;" parent="1" vertex="1">
          <mxGeometry x="810" y="650" width="200" height="200" as="geometry" />
        </mxCell>
        <mxCell id="55dd390204d0f602-10" value="" style="ellipse;whiteSpace=wrap;html=1;rounded=0;shadow=0;dashed=0;strokeColor=none;strokeWidth=4;fillColor=#F49731;gradientColor=none;fontFamily=Helvetica;fontSize=100;fontColor=#FFFFFF;align=center;" parent="1" vertex="1">
          <mxGeometry x="825" y="665" width="170" height="170" as="geometry" />
        </mxCell>
        <mxCell id="55dd390204d0f602-12" value="&lt;font color=&quot;#000000&quot;&gt;STAGE 2&lt;/font&gt;" style="whiteSpace=wrap;html=1;rounded=1;shadow=0;dashed=0;strokeColor=#000000;strokeWidth=4;fillColor=#F49731;gradientColor=none;fontFamily=Helvetica;fontSize=30;fontColor=#FFFFFF;align=center;fontStyle=1;glass=0;labelBackgroundColor=none;" parent="1" vertex="1">
          <mxGeometry x="385" y="640" width="240" height="60" as="geometry" />
        </mxCell>
        <mxCell id="55dd390204d0f602-13" value="Data Visualisation and Streamlit app building" style="text;spacingTop=-5;fillColor=default;whiteSpace=wrap;html=1;align=center;fontSize=20;fontFamily=Helvetica;fillColor=none;strokeColor=default;rounded=1;shadow=0;dashed=0;fontColor=#000000;fontStyle=1;verticalAlign=middle;strokeWidth=3;sketch=1;curveFitting=1;jiggle=2;" parent="1" vertex="1">
          <mxGeometry x="240" y="720" width="535" height="130" as="geometry" />
        </mxCell>
        <mxCell id="55dd390204d0f602-14" value="" style="ellipse;whiteSpace=wrap;html=1;rounded=0;shadow=0;dashed=0;strokeColor=#000000;strokeWidth=4;fillColor=none;gradientColor=none;fontFamily=Helvetica;fontSize=100;fontColor=#FFFFFF;align=center;" parent="1" vertex="1">
          <mxGeometry x="255" y="970" width="200" height="200" as="geometry" />
        </mxCell>
        <mxCell id="55dd390204d0f602-15" value="" style="ellipse;whiteSpace=wrap;html=1;rounded=0;shadow=0;dashed=0;strokeColor=none;strokeWidth=4;fillColor=#F49731;gradientColor=none;fontFamily=Helvetica;fontSize=100;fontColor=#FFFFFF;align=center;" parent="1" vertex="1">
          <mxGeometry x="270" y="985" width="170" height="170" as="geometry" />
        </mxCell>
        <mxCell id="55dd390204d0f602-17" value="&lt;font color=&quot;#000000&quot;&gt;STAGE 3&lt;/font&gt;" style="whiteSpace=wrap;html=1;rounded=1;shadow=0;dashed=0;strokeColor=default;strokeWidth=4;fillColor=#F49731;gradientColor=none;fontFamily=Helvetica;fontSize=30;fontColor=#FFFFFF;align=center;fontStyle=1;" parent="1" vertex="1">
          <mxGeometry x="655" y="960" width="240" height="60" as="geometry" />
        </mxCell>
        <mxCell id="55dd390204d0f602-18" value="&lt;b&gt;&lt;font style=&quot;font-size: 20px;&quot;&gt;Dockerisation (Image and container)&lt;/font&gt;&lt;/b&gt;" style="text;spacingTop=-5;fillColor=#ffffff;whiteSpace=wrap;html=1;align=center;fontSize=14;fontFamily=Helvetica;fillColor=none;strokeColor=default;rounded=1;shadow=0;dashed=0;fontColor=#000000;verticalAlign=middle;sketch=1;curveFitting=1;jiggle=2;strokeWidth=3;" parent="1" vertex="1">
          <mxGeometry x="510" y="1040" width="535" height="130" as="geometry" />
        </mxCell>
        <mxCell id="55dd390204d0f602-19" value="" style="ellipse;whiteSpace=wrap;html=1;rounded=0;shadow=0;dashed=0;strokeColor=#000000;strokeWidth=4;fillColor=none;gradientColor=none;fontFamily=Helvetica;fontSize=100;fontColor=#FFFFFF;align=center;" parent="1" vertex="1">
          <mxGeometry x="805" y="1290" width="200" height="200" as="geometry" />
        </mxCell>
        <mxCell id="55dd390204d0f602-20" value="" style="ellipse;whiteSpace=wrap;html=1;rounded=0;shadow=0;dashed=0;strokeColor=none;strokeWidth=4;fillColor=#F49731;gradientColor=none;fontFamily=Helvetica;fontSize=100;fontColor=#FFFFFF;align=center;" parent="1" vertex="1">
          <mxGeometry x="820" y="1305" width="170" height="170" as="geometry" />
        </mxCell>
        <mxCell id="55dd390204d0f602-22" value="STAGE 4" style="whiteSpace=wrap;html=1;rounded=1;shadow=0;dashed=0;strokeColor=default;strokeWidth=4;fillColor=#F49731;gradientColor=none;fontFamily=Helvetica;fontSize=30;fontColor=#000000;align=center;fontStyle=1;" parent="1" vertex="1">
          <mxGeometry x="380" y="1280" width="240" height="60" as="geometry" />
        </mxCell>
        <mxCell id="55dd390204d0f602-23" value="Delivery to Non linux user" style="text;spacingTop=-5;fillColor=default;whiteSpace=wrap;html=1;align=center;fontSize=20;fontFamily=Helvetica;fillColor=none;strokeColor=default;rounded=1;shadow=0;dashed=0;fontColor=#000000;fontStyle=1;verticalAlign=middle;strokeWidth=3;sketch=1;curveFitting=1;jiggle=2;" parent="1" vertex="1">
          <mxGeometry x="235" y="1360" width="535" height="130" as="geometry" />
        </mxCell>
        <mxCell id="55dd390204d0f602-24" value="" style="shape=mxgraph.signs.transportation.anchor_2;html=1;fillColor=#FFFFFF;strokeColor=none;verticalLabelPosition=bottom;verticalAlign=top;align=center;rounded=0;shadow=0;dashed=0;fontFamily=Helvetica;fontSize=14;fontColor=#FEF15B;" parent="1" vertex="1">
          <mxGeometry x="18.69999999999999" y="690" width="94" height="98" as="geometry" />
        </mxCell>
        <mxCell id="qIjiPOCy2PTMgKBAL-VI-1" value="" style="image;html=1;points=[];align=center;fontSize=12;image=img/lib/mscae/Docker.svg;rounded=0;" parent="1" vertex="1">
          <mxGeometry x="302.5" y="1020" width="105" height="85" as="geometry" />
        </mxCell>
        <mxCell id="qIjiPOCy2PTMgKBAL-VI-2" value="" style="image;html=1;image=img/lib/clip_art/finance/Graph_128x128.png;rounded=0;" parent="1" vertex="1">
          <mxGeometry x="856.5" y="703" width="105" height="85" as="geometry" />
        </mxCell>
        <mxCell id="qIjiPOCy2PTMgKBAL-VI-3" value="" style="verticalLabelPosition=bottom;html=1;shape=mxgraph.salesforce.data;rounded=0;" parent="1" vertex="1">
          <mxGeometry x="307.5" y="387.5" width="105" height="85" as="geometry" />
        </mxCell>
        <mxCell id="qIjiPOCy2PTMgKBAL-VI-5" value="" style="image;aspect=fixed;html=1;points=[];align=center;fontSize=12;image=img/lib/mscae/OS_Images_Classic.svg;rounded=0;" parent="1" vertex="1">
          <mxGeometry x="858.81" y="1347.5" width="92.39" height="85" as="geometry" />
        </mxCell>
        <mxCell id="j8zLXz6uU7UaEbINKe2m-10" style="edgeStyle=orthogonalEdgeStyle;rounded=0;orthogonalLoop=1;jettySize=auto;html=1;exitX=0.5;exitY=1;exitDx=0;exitDy=0;flowAnimation=1;strokeWidth=5;strokeColor=#F0922D;" edge="1" parent="1" source="55dd390204d0f602-14">
          <mxGeometry relative="1" as="geometry">
            <mxPoint x="360" y="1180" as="sourcePoint" />
            <mxPoint x="910" y="1280" as="targetPoint" />
          </mxGeometry>
        </mxCell>
      </root>
    </mxGraphModel>
  </diagram>
</mxfile>
